<mxfile host="65bd71144e">
    <diagram id="9MTuhOz6bBubnDDvny-y" name="Page-1">
        <mxGraphModel dx="1904" dy="637" grid="1" gridSize="10" guides="1" tooltips="1" connect="1" arrows="1" fold="1" page="1" pageScale="1" pageWidth="850" pageHeight="1100" math="0" shadow="0">
            <root>
                <mxCell id="0"/>
                <mxCell id="1" parent="0"/>
                <mxCell id="2" value="NhânViên" style="shape=umlActor;verticalLabelPosition=bottom;verticalAlign=top;html=1;outlineConnect=0;" parent="1" vertex="1">
                    <mxGeometry x="30" y="290" width="30" height="60" as="geometry"/>
                </mxCell>
                <mxCell id="3" value="Nhân Viên Kinh doan" style="shape=umlActor;verticalLabelPosition=bottom;verticalAlign=top;html=1;outlineConnect=0;" parent="1" vertex="1">
                    <mxGeometry x="200" y="70" width="30" height="60" as="geometry"/>
                </mxCell>
                <mxCell id="4" value="Nv Kế Toán" style="shape=umlActor;verticalLabelPosition=bottom;verticalAlign=top;html=1;outlineConnect=0;" parent="1" vertex="1">
                    <mxGeometry x="200" y="220" width="30" height="60" as="geometry"/>
                </mxCell>
                <mxCell id="5" value="Nv Phục vụ" style="shape=umlActor;verticalLabelPosition=bottom;verticalAlign=top;html=1;outlineConnect=0;" parent="1" vertex="1">
                    <mxGeometry x="200" y="380" width="30" height="60" as="geometry"/>
                </mxCell>
                <mxCell id="6" value="Nv Tiếp Tân" style="shape=umlActor;verticalLabelPosition=bottom;verticalAlign=top;html=1;outlineConnect=0;" parent="1" vertex="1">
                    <mxGeometry x="200" y="520" width="30" height="60" as="geometry"/>
                </mxCell>
                <mxCell id="7" value="QL Nhân sự" style="shape=umlActor;verticalLabelPosition=bottom;verticalAlign=top;html=1;outlineConnect=0;" parent="1" vertex="1">
                    <mxGeometry x="190" y="660" width="30" height="60" as="geometry"/>
                </mxCell>
                <mxCell id="8" value="" style="endArrow=classic;html=1;" edge="1" parent="1" target="11">
                    <mxGeometry width="50" height="50" relative="1" as="geometry">
                        <mxPoint x="250" y="260" as="sourcePoint"/>
                        <mxPoint x="450" y="230" as="targetPoint"/>
                    </mxGeometry>
                </mxCell>
                <mxCell id="11" value="Thống kê báo cáo" style="ellipse;whiteSpace=wrap;html=1;" vertex="1" parent="1">
                    <mxGeometry x="390" y="150" width="120" height="60" as="geometry"/>
                </mxCell>
                <mxCell id="12" value="QL đặt phòng" style="ellipse;whiteSpace=wrap;html=1;" vertex="1" parent="1">
                    <mxGeometry x="400" y="320" width="120" height="60" as="geometry"/>
                </mxCell>
                <mxCell id="13" value="Quản lý thuê phòng" style="ellipse;whiteSpace=wrap;html=1;" vertex="1" parent="1">
                    <mxGeometry x="400" y="500" width="120" height="60" as="geometry"/>
                </mxCell>
                <mxCell id="14" value="QL trả phòng" style="ellipse;whiteSpace=wrap;html=1;" vertex="1" parent="1">
                    <mxGeometry x="400" y="670" width="120" height="60" as="geometry"/>
                </mxCell>
                <mxCell id="16" value="" style="endArrow=classic;html=1;" edge="1" parent="1">
                    <mxGeometry width="50" height="50" relative="1" as="geometry">
                        <mxPoint x="190" y="150" as="sourcePoint"/>
                        <mxPoint x="70" y="290" as="targetPoint"/>
                    </mxGeometry>
                </mxCell>
                <mxCell id="18" value="" style="endArrow=classic;html=1;" edge="1" parent="1">
                    <mxGeometry width="50" height="50" relative="1" as="geometry">
                        <mxPoint x="190" y="280" as="sourcePoint"/>
                        <mxPoint x="80" y="330" as="targetPoint"/>
                    </mxGeometry>
                </mxCell>
                <mxCell id="19" value="" style="endArrow=classic;html=1;" edge="1" parent="1">
                    <mxGeometry width="50" height="50" relative="1" as="geometry">
                        <mxPoint x="180" y="420" as="sourcePoint"/>
                        <mxPoint x="80" y="370" as="targetPoint"/>
                    </mxGeometry>
                </mxCell>
                <mxCell id="20" value="" style="endArrow=classic;html=1;" edge="1" parent="1">
                    <mxGeometry width="50" height="50" relative="1" as="geometry">
                        <mxPoint x="180" y="550" as="sourcePoint"/>
                        <mxPoint x="70" y="400" as="targetPoint"/>
                    </mxGeometry>
                </mxCell>
                <mxCell id="21" value="" style="endArrow=classic;html=1;" edge="1" parent="1">
                    <mxGeometry width="50" height="50" relative="1" as="geometry">
                        <mxPoint x="180" y="690" as="sourcePoint"/>
                        <mxPoint x="50" y="410" as="targetPoint"/>
                    </mxGeometry>
                </mxCell>
                <mxCell id="22" value="" style="endArrow=classic;html=1;" edge="1" parent="1">
                    <mxGeometry width="50" height="50" relative="1" as="geometry">
                        <mxPoint x="240" y="580" as="sourcePoint"/>
                        <mxPoint x="400" y="680" as="targetPoint"/>
                    </mxGeometry>
                </mxCell>
                <mxCell id="23" value="" style="endArrow=classic;html=1;" edge="1" parent="1">
                    <mxGeometry width="50" height="50" relative="1" as="geometry">
                        <mxPoint x="250" y="430" as="sourcePoint"/>
                        <mxPoint x="390" y="510" as="targetPoint"/>
                    </mxGeometry>
                </mxCell>
                <mxCell id="24" value="" style="endArrow=classic;html=1;entryX=0;entryY=0.5;entryDx=0;entryDy=0;" edge="1" parent="1" target="13">
                    <mxGeometry width="50" height="50" relative="1" as="geometry">
                        <mxPoint x="240" y="560" as="sourcePoint"/>
                        <mxPoint x="300" y="550" as="targetPoint"/>
                    </mxGeometry>
                </mxCell>
                <mxCell id="25" value="" style="endArrow=classic;html=1;" edge="1" parent="1" target="12">
                    <mxGeometry width="50" height="50" relative="1" as="geometry">
                        <mxPoint x="240" y="530" as="sourcePoint"/>
                        <mxPoint x="310" y="480" as="targetPoint"/>
                    </mxGeometry>
                </mxCell>
                <mxCell id="26" value="" style="endArrow=classic;html=1;" edge="1" parent="1">
                    <mxGeometry width="50" height="50" relative="1" as="geometry">
                        <mxPoint x="250" y="90" as="sourcePoint"/>
                        <mxPoint x="410" y="140" as="targetPoint"/>
                    </mxGeometry>
                </mxCell>
                <mxCell id="28" value="" style="endArrow=classic;html=1;" edge="1" parent="1">
                    <mxGeometry width="50" height="50" relative="1" as="geometry">
                        <mxPoint x="20" y="310" as="sourcePoint"/>
                        <mxPoint x="-140" y="190" as="targetPoint"/>
                    </mxGeometry>
                </mxCell>
                <mxCell id="29" value="Đăng nhập" style="ellipse;whiteSpace=wrap;html=1;" vertex="1" parent="1">
                    <mxGeometry x="-240" y="130" width="120" height="50" as="geometry"/>
                </mxCell>
                <mxCell id="31" value="" style="endArrow=classic;html=1;" edge="1" parent="1">
                    <mxGeometry width="50" height="50" relative="1" as="geometry">
                        <mxPoint x="10" y="350" as="sourcePoint"/>
                        <mxPoint x="-210" y="330" as="targetPoint"/>
                    </mxGeometry>
                </mxCell>
                <mxCell id="32" value="Đăng Xuất" style="ellipse;whiteSpace=wrap;html=1;" vertex="1" parent="1">
                    <mxGeometry x="-360" y="290" width="120" height="60" as="geometry"/>
                </mxCell>
                <mxCell id="33" value="" style="endArrow=classic;html=1;" edge="1" parent="1">
                    <mxGeometry width="50" height="50" relative="1" as="geometry">
                        <mxPoint y="380" as="sourcePoint"/>
                        <mxPoint x="-151.5889360201313" y="455.79446801006566" as="targetPoint"/>
                    </mxGeometry>
                </mxCell>
                <mxCell id="35" style="edgeStyle=none;html=1;" edge="1" parent="1">
                    <mxGeometry relative="1" as="geometry">
                        <mxPoint x="-132.530422886731" y="467.81630286084146" as="sourcePoint"/>
                        <mxPoint x="-132.530422886731" y="482.18369713915854" as="targetPoint"/>
                    </mxGeometry>
                </mxCell>
                <mxCell id="36" value="Đổi mật khẩu" style="ellipse;whiteSpace=wrap;html=1;" vertex="1" parent="1">
                    <mxGeometry x="-280" y="440" width="120" height="60" as="geometry"/>
                </mxCell>
                <mxCell id="40" style="edgeStyle=none;html=1;" edge="1" parent="1">
                    <mxGeometry relative="1" as="geometry">
                        <mxPoint x="480" y="790" as="targetPoint"/>
                        <mxPoint x="480" y="790" as="sourcePoint"/>
                    </mxGeometry>
                </mxCell>
                <mxCell id="37" value="Quản lý hồ sơ nhân viên" style="ellipse;whiteSpace=wrap;html=1;" vertex="1" parent="1">
                    <mxGeometry x="420" y="800" width="120" height="40" as="geometry"/>
                </mxCell>
                <mxCell id="39" value="" style="endArrow=classic;html=1;" edge="1" parent="1">
                    <mxGeometry width="50" height="50" relative="1" as="geometry">
                        <mxPoint x="250" y="730" as="sourcePoint"/>
                        <mxPoint x="400" y="810" as="targetPoint"/>
                    </mxGeometry>
                </mxCell>
                <mxCell id="41" value="" style="endArrow=classic;html=1;" edge="1" parent="1" target="42">
                    <mxGeometry width="50" height="50" relative="1" as="geometry">
                        <mxPoint x="-10" y="320" as="sourcePoint"/>
                        <mxPoint x="-280" y="230" as="targetPoint"/>
                    </mxGeometry>
                </mxCell>
                <mxCell id="42" value="Xem thông tin cá nhân" style="ellipse;whiteSpace=wrap;html=1;" vertex="1" parent="1">
                    <mxGeometry x="-380" y="190" width="120" height="60" as="geometry"/>
                </mxCell>
                <mxCell id="43" value="" style="endArrow=classic;html=1;" edge="1" parent="1" target="44">
                    <mxGeometry width="50" height="50" relative="1" as="geometry">
                        <mxPoint x="-20" y="370" as="sourcePoint"/>
                        <mxPoint x="-350" y="420" as="targetPoint"/>
                    </mxGeometry>
                </mxCell>
                <mxCell id="44" value="Sửa thông tin" style="ellipse;whiteSpace=wrap;html=1;" vertex="1" parent="1">
                    <mxGeometry x="-410" y="380" width="120" height="50" as="geometry"/>
                </mxCell>
                <mxCell id="48" value="QL khen thưởng" style="ellipse;whiteSpace=wrap;html=1;" vertex="1" parent="1">
                    <mxGeometry x="440" y="880" width="120" height="50" as="geometry"/>
                </mxCell>
                <mxCell id="49" value="" style="endArrow=classic;html=1;" edge="1" parent="1">
                    <mxGeometry width="50" height="50" relative="1" as="geometry">
                        <mxPoint x="240" y="750" as="sourcePoint"/>
                        <mxPoint x="430" y="890" as="targetPoint"/>
                    </mxGeometry>
                </mxCell>
            </root>
        </mxGraphModel>
    </diagram>
</mxfile>